<svg xmlns="http://www.w3.org/2000/svg" width="96" height="96" viewBox="0 0 96 96" role="img" aria-label="DragonByte mark">
  <defs>
    <linearGradient id="g" x1="14" y1="10" x2="86" y2="86" gradientUnits="userSpaceOnUse">
      <stop offset="0" stop-color="#7dd3fc"/>
      <stop offset="0.45" stop-color="#a78bfa"/>
      <stop offset="1" stop-color="#22c55e"/>
    </linearGradient>
    <filter id="soft" x="-20%" y="-20%" width="140%" height="140%">
      <feGaussianBlur stdDeviation="1.2" result="b"/>
      <feMerge><feMergeNode in="b"/><feMergeNode in="SourceGraphic"/></feMerge>
    </filter>
  </defs>
  <circle cx="48" cy="48" r="42" fill="none" stroke="url(#g)" stroke-width="4"/>
  <path d="M58 18c-10 1-18 9-20 19-2 12 6 22 18 24 6 1 12-1 17-5-2 8-9 15-18 17-16 4-32-6-36-22-5-20 12-40 39-33z"
        fill="url(#g)" filter="url(#soft)"/>
  <path d="M64 34c-5 2-9 6-11 11-2 6-1 12 3 17-9-2-15-12-12-21 2-8 10-14 20-13z"
        fill="none" stroke="url(#g)" stroke-width="3" stroke-linecap="round" opacity="0.75"/>
  <circle cx="63" cy="30" r="2" fill="#e5e7eb"/>
</svg>
